<svg xmlns="http://www.w3.org/2000/svg" width="1100" height="170"><defs><marker id="a" markerWidth="8" markerHeight="8" refX="7" refY="4" orient="auto"><path d="M0,0 L8,4 L0,8z" fill="#82959b"/></marker></defs><rect width="1100" height="170" fill="#f5f7f6" rx="16"/><g transform="translate(45,50)"><rect width="170" height="70" rx="12" fill="#1d5b65" stroke="#1d5b65"/><text x="85" y="42" text-anchor="middle" font-family="sans-serif" font-size="15" fill="#fff">业务登记</text></g><g transform="translate(265,50)"><rect width="170" height="70" rx="12" fill="#fff" stroke="#1d5b65"/><text x="85" y="42" text-anchor="middle" font-family="sans-serif" font-size="15" fill="#193740">执行统计分析</text></g><g transform="translate(485,50)"><rect width="170" height="70" rx="12" fill="#fff" stroke="#1d5b65"/><text x="85" y="42" text-anchor="middle" font-family="sans-serif" font-size="15" fill="#193740">确认纠正措施</text></g><g transform="translate(705,50)"><rect width="170" height="70" rx="12" fill="#fff" stroke="#1d5b65"/><text x="85" y="42" text-anchor="middle" font-family="sans-serif" font-size="15" fill="#193740">验证关闭</text></g><g transform="translate(925,50)"><rect width="170" height="70" rx="12" fill="#1d5b65" stroke="#1d5b65"/><text x="85" y="42" text-anchor="middle" font-family="sans-serif" font-size="15" fill="#fff">审计归档</text></g><path d="M 215 85 H 260" stroke="#82959b" stroke-width="2" marker-end="url(#a)"/><path d="M 435 85 H 480" stroke="#82959b" stroke-width="2" marker-end="url(#a)"/><path d="M 655 85 H 700" stroke="#82959b" stroke-width="2" marker-end="url(#a)"/><path d="M 875 85 H 920" stroke="#82959b" stroke-width="2" marker-end="url(#a)"/><text x="550" y="150" text-anchor="middle" font-family="sans-serif" font-size="12" fill="#66777d">统计过程控制系统企业业务闭环</text></svg>